<?xml version="1.0" encoding="utf-8"?>
<!-- Generator: Adobe Illustrator 27.5.0, SVG Export Plug-In . SVG Version: 6.00 Build 0)  -->
<svg version="1.1" id="Layer_1" xmlns="http://www.w3.org/2000/svg" xmlns:xlink="http://www.w3.org/1999/xlink" x="0px" y="0px"
	 viewBox="0 0 1000 1000" style="enable-background:new 0 0 1000 1000;" xml:space="preserve">
<style type="text/css">
	.st0{fill-rule:evenodd;clip-rule:evenodd;fill:#F0F0F0;}
	.st1{fill:#F0F0F0;}
</style>
<g>
	<path class="st0" d="M440.1,510.9c-99.1,0-189.5,21.5-258.4,60.3S65.4,666,65.4,734.9v4.3c0,51.7,0,112,56,159.4
		c25.8,21.5,64.6,38.8,116.3,47.4c51.7,8.6,116.3,17.2,206.8,17.2c86.1,0,155.1-4.3,206.8-17.2c51.7-8.6,90.5-25.8,116.3-47.4
		c56-43.1,56-107.7,56-159.4v-4.3c0-68.9-51.7-129.2-116.3-163.7C629.6,536.7,539.2,510.9,440.1,510.9z M130,739.2
		c0-38.8,25.8-77.5,86.1-107.7c56-30.2,137.8-51.7,228.3-51.7s172.3,21.5,228.3,51.7c56,34.5,86.1,73.2,86.1,107.7
		c0,56,0,86.1-30.2,112c-17.2,12.9-43.1,25.8-90.5,34.5c-47.4,8.6-107.7,12.9-193.8,12.9s-146.4-4.3-193.8-12.9
		c-47.4-8.6-73.2-21.5-90.5-34.5C130,825.3,130,795.2,130,739.2z"/>
	<path class="st0" d="M442.3,37.1c-112,0-202.4,94.8-202.4,206.8s90.5,206.8,202.4,206.8S649,360.1,649,243.8S554.3,37.1,442.3,37.1
		z M304.4,243.8c0-77.5,64.6-137.8,137.8-137.8S580,170.6,580,243.8s-60.3,137.8-137.8,137.8S304.4,321.4,304.4,243.8z"/>
	<path class="st1" d="M1000,268.4c-18.4,52.2-63,43.3-105.5,43.6c0,17.1,0.2,33.5,0,49.9c-0.5,29.7-21.6,52-51.7,54.9
		c-26.6,2.6-54-17.4-58.1-44.8c-2.4-16.3-0.9-33.2-1.1-49.8c0-2.7-0.2-5.4-0.4-10.2c-15.5,0-30.5,0.4-45.5-0.1
		c-36.5-1.1-60.6-25.1-59.4-58.8c0.8-25,19.5-47.8,44.4-51.2c19.5-2.6,39.5-2.2,61-3.3c0-15-0.1-30.1,0-45.2
		c0.2-33.7,23.5-58.5,55-58.9c31.7-0.4,55.7,25.1,55.9,59.5c0.1,14.7,0,29.4,0,45.7c12.6,0,24.1,0.5,35.4-0.1
		c33.8-1.9,58.2,10.8,70.1,43.7C1000,251.7,1000,260,1000,268.4z"/>
</g>
</svg>
