<svg width="16" height="21" viewBox="0 0 16 21" fill="none" xmlns="http://www.w3.org/2000/svg">
<path d="M3.9978 0.953255C1.7887 0.953255 -0.00219727 2.74425 -0.00219727 4.95324C-0.00219727 6.30124 0.665803 7.44025 1.6032 8.15324C1.236 8.60224 0.997803 9.26123 0.997803 9.95323C0.997803 11.6102 2.3409 12.9532 3.9978 12.9532H4.1643C4.1643 12.9532 3.9956 13.4652 3.9978 13.9532C4.0052 15.6102 5.3409 16.9532 6.9978 16.9532H7.9978C7.9978 18.8072 9.2797 19.9662 11.2166 20.5472C11.8312 20.7312 12.4777 20.8262 13.1228 20.8902C13.51 20.9292 13.8103 20.9532 13.9978 20.9532C14.5501 20.9532 14.9978 20.5052 14.9978 19.9532C14.9978 19.4012 14.5501 18.9532 13.9978 18.9532C13.8728 18.9532 13.6262 18.9532 13.3103 18.9222C12.7835 18.8692 12.2582 18.7532 11.779 18.6092C10.5909 18.2532 9.9978 17.7242 9.9978 16.9532H11.9978C12.5501 16.9532 12.9978 16.5052 12.9978 15.9532C12.9978 15.4012 12.5501 14.9532 11.9978 14.9532H8.9978H6.9978C6.4455 14.9532 5.9978 14.5052 5.9978 13.9532C5.9978 13.4012 6.4455 12.9532 6.9978 12.9532H9.9978C10.2739 12.9532 10.5356 12.8532 10.7166 12.6722C10.8975 12.4912 10.9978 12.2292 10.9978 11.9532C10.9978 11.4012 10.5501 10.9532 9.9978 10.9532H6.9978H3.9978C3.4455 10.9532 2.9978 10.5052 2.9978 9.95323C2.9978 9.40123 3.4455 8.95323 3.9978 8.95323H7.9353H8.029C8.5813 8.95323 9.0291 8.50523 9.029 7.95323C9.029 7.40124 8.5813 6.95324 8.029 6.95324H7.9353H3.9978C2.8932 6.95324 1.9978 6.05824 1.9978 4.95324C1.9978 3.84825 2.8932 2.95325 3.9978 2.95325H11.9978C13.1024 2.95325 13.9978 3.84825 13.9978 4.95324C13.9978 6.05824 13.1024 6.95324 11.9978 6.95324C11.4455 6.95324 10.9978 7.40124 10.9978 7.95323C10.9978 8.50523 11.4455 8.95323 11.9978 8.95323C14.2069 8.95323 15.9978 7.16224 15.9978 4.95324C15.9978 2.74425 14.2069 0.953255 11.9978 0.953255H3.9978Z" fill="#00B303"/>
</svg>
